# xmcd CD database file
#
# Track frame offsets:
#	150
#	15969
#	31798
#	46240
#	60705
#	79981
#	99230
#	111645
#	123978
#	141209
#	158479
#	171734
#	184986
#	196561
#	208152
#	217689
#	227243
#	244423
#	261609
#
# Disc length: 3602 seconds
#
# Revision: 0
# Processed by: cddbd v1.5.2PL0 Copyright (c) Steve Scherf et al.
# Submitted via: CDex 1.51
#
DISCID=0d0e1013
DTITLE=Eric Bibb - Guitar Tab Songbook Volume 1
DYEAR=2015
DGENRE=Blues
TTITLE0=Champagne Habits (guitar)
TTITLE1=Champagne Habits (guitar and vocal)
TTITLE2=Come Back Baby (guitar)
TTITLE3=Come Back Baby (guitar and vocal)
TTITLE4=Connected (guitar)
TTITLE5=Connected (guitar and vocal)
TTITLE6=Don't Ever Let Nobody Drag Your Spirit Down (guitar)
TTITLE7=Don't Ever Let Nobody Drag Your Spirit Down (guitar and vocal)
TTITLE8=Goin' Down Slow (guitar)
TTITLE9=Goin' Down Slow (guitar and vocal)
TTITLE10=In My Father's House (guitar)
TTITLE11=In My Father's House (guitar and vocal)
TTITLE12=Needed Time (guitar)
TTITLE13=Needed Time (guitar and vocal)
TTITLE14=On My Way To Bamako (guitar)
TTITLE15=On My Way To Bamako (guitar and vocal)
TTITLE16=Saucer 'n' Cup (guitar)
TTITLE17=Saucer 'n' Cup (guitar and vocal)
TTITLE18=Sebastian's Tune (guitar)
EXTD=YEAR: 2015
EXTT0=
EXTT1=
EXTT2=
EXTT3=
EXTT4=
EXTT5=
EXTT6=
EXTT7=
EXTT8=
EXTT9=
EXTT10=
EXTT11=
EXTT12=
EXTT13=
EXTT14=
EXTT15=
EXTT16=
EXTT17=
EXTT18=
PLAYORDER=
